<svg width="401" height="161" viewBox="0 0 401 161" fill="none" xmlns="http://www.w3.org/2000/svg">
<path d="M53.7843 33.582L40.7738 30.6318C40.5538 30.5818 40.3438 30.7518 40.3438 30.9719V82.3141C40.3438 82.5341 40.5438 82.7041 40.7638 82.6541L53.7743 79.974C53.9343 79.944 54.0543 79.794 54.0543 79.634V33.912C54.0543 33.752 53.9443 33.612 53.7843 33.582Z" fill="#1B2126"/>
<path d="M76.0351 33.582L89.0457 30.6318C89.2657 30.5818 89.4757 30.7518 89.4757 30.9719V82.3141C89.4757 82.5341 89.2757 82.7041 89.0557 82.6541L76.0452 79.974C75.8851 79.944 75.7651 79.794 75.7651 79.634V33.912C75.7651 33.752 75.8751 33.612 76.0351 33.582Z" fill="#1B2126"/>
<mask id="mask0_2026_7704" style="mask-type:luminance" maskUnits="userSpaceOnUse" x="58" y="49" width="14" height="15">
<path d="M71.7647 63.033C71.7647 63.203 71.6347 63.333 71.4647 63.333H58.3547C58.1847 63.333 58.0547 63.203 58.0547 63.033V49.923C58.0547 49.753 58.1847 49.623 58.3547 49.623H71.4647C71.6347 49.623 71.7647 49.753 71.7647 49.923V63.033Z" fill="white"/>
</mask>
<g mask="url(#mask0_2026_7704)">
<path d="M71.7647 63.033C71.7647 63.203 71.6347 63.333 71.4647 63.333H58.3547C58.1847 63.333 58.0547 63.203 58.0547 63.033V49.923C58.0547 49.753 58.1847 49.623 58.3547 49.623H71.4647C71.6347 49.623 71.7647 49.753 71.7647 49.923V63.033Z" fill="#0080FF"/>
<path d="M58.0547 49.623H71.7647L58.0547 63.333V49.623Z" fill="#0080FF"/>
<path d="M71.7647 63.333H58.0547L71.7647 49.623V63.333Z" fill="#0072E5"/>
</g>
<path d="M224.182 31.8418C223.992 31.8418 223.832 32.0018 223.832 32.1918V51.0626C223.832 51.2526 223.672 51.4127 223.482 51.4127H204.121C203.931 51.4127 203.771 51.2526 203.771 51.0626V32.1918C203.771 32.0018 203.611 31.8418 203.421 31.8418H193.25C193.06 31.8418 192.9 32.0018 192.9 32.1918V80.9339C192.9 81.124 193.06 81.284 193.25 81.284H203.431C203.621 81.284 203.781 81.124 203.781 80.9339V61.7831C203.781 61.5931 203.941 61.4331 204.131 61.4331H223.492C223.682 61.4331 223.842 61.5931 223.842 61.7831V80.9339C223.842 81.124 224.002 81.284 224.192 81.284H234.372C234.562 81.284 234.722 81.124 234.722 80.9339V32.1918C234.722 32.0018 234.562 31.8418 234.372 31.8418H224.182Z" fill="#1B2126"/>
<path d="M115.757 31.4917C115.617 31.4917 115.487 31.5717 115.437 31.7017L94.536 80.7939C94.436 81.0239 94.606 81.2739 94.856 81.2739H105.186C105.326 81.2739 105.456 81.1839 105.506 81.0539L109.847 70.4034C109.897 70.2734 110.027 70.1834 110.167 70.1834H130.608C130.748 70.1834 130.878 70.2734 130.928 70.4034L135.268 81.0539C135.318 81.1839 135.448 81.2739 135.588 81.2739H146.198C146.448 81.2739 146.618 81.0239 146.518 80.7939L125.637 31.7017C125.587 31.5717 125.457 31.4917 125.317 31.4917H115.757ZM120.207 45.0223C120.277 44.8523 120.527 44.8523 120.597 45.0223L126.857 60.293C126.917 60.433 126.817 60.583 126.667 60.583H114.137C113.987 60.583 113.887 60.433 113.947 60.293L120.207 45.0223Z" fill="#1B2126"/>
<path d="M147.698 74.3035C147.558 74.1835 147.538 73.9635 147.658 73.8235L153.649 66.6432C153.769 66.4931 153.989 66.4731 154.139 66.5932C158.509 70.1433 163.099 72.3834 168.629 72.3834C173.08 72.3834 175.76 70.6233 175.76 67.7232V67.5832C175.76 64.8331 174.07 63.413 165.799 61.2929C155.839 58.7528 149.408 55.9927 149.408 46.1823V46.0423C149.408 37.0719 156.609 31.1416 166.709 31.1416C173.79 31.1416 179.85 33.3317 184.82 37.2219C184.96 37.3319 184.99 37.5419 184.89 37.6919L179.62 45.3322C179.51 45.4922 179.29 45.5322 179.13 45.4222C174.85 42.5021 170.639 40.742 166.559 40.742C162.389 40.742 160.199 42.6521 160.199 45.0522V45.1922C160.199 48.4424 162.319 49.5024 170.869 51.6925C180.9 54.3026 186.55 57.9128 186.55 66.5232V66.6632C186.55 76.4836 179.06 81.9938 168.399 81.9938C161.049 81.9838 153.599 79.4437 147.698 74.3035Z" fill="#1B2126"/>
<path d="M272.704 31.8418C272.514 31.8418 272.354 32.0018 272.354 32.1918V80.9339C272.354 81.124 272.514 81.284 272.704 81.284H309.656C309.846 81.284 310.006 81.124 310.006 80.9339V71.9536C310.006 71.7635 309.846 71.6035 309.656 71.6035H283.514C283.324 71.6035 283.164 71.4435 283.164 71.2535V61.5631C283.164 61.3731 283.324 61.2131 283.514 61.2131H306.125C306.315 61.2131 306.475 61.0531 306.475 60.8631V51.8827C306.475 51.6927 306.315 51.5327 306.125 51.5327H283.514C283.324 51.5327 283.164 51.3727 283.164 51.1826V41.8522C283.164 41.6622 283.324 41.5022 283.514 41.5022H309.306C309.496 41.5022 309.656 41.3422 309.656 41.1522V32.1918C309.656 32.0018 309.496 31.8418 309.306 31.8418H272.704Z" fill="#1B2126"/>
<path d="M348.477 31.8418C348.357 31.8418 348.247 31.9018 348.177 32.0118L336.577 51.1926C336.437 51.4127 336.117 51.4127 335.977 51.1926L324.576 32.0118C324.516 31.9018 324.396 31.8418 324.276 31.8418H312.396C312.126 31.8418 311.956 32.1418 312.106 32.3718L330.707 61.7031C330.747 61.7631 330.757 61.8231 330.757 61.8931V80.9339C330.757 81.124 330.917 81.284 331.107 81.284H341.287C341.477 81.284 341.637 81.124 341.637 80.9339V61.6831C341.637 61.6131 341.657 61.5531 341.687 61.4931L360.288 32.3818C360.438 32.1518 360.268 31.8418 359.998 31.8418H348.477Z" fill="#1B2126"/>
<path d="M253.043 31.8418C252.953 31.8418 252.863 31.8818 252.793 31.9418L245.213 39.5221L237.772 46.9624C237.632 47.1024 237.632 47.3225 237.772 47.4525L244.963 54.6428C245.103 54.7828 245.323 54.7828 245.453 54.6428L252.893 47.2025L260.583 39.5121L267.914 32.1818C268.044 32.0518 267.954 31.8218 267.764 31.8218H253.043V31.8418Z" fill="#1B2126"/>
<mask id="mask1_2026_7704" style="mask-type:luminance" maskUnits="userSpaceOnUse" x="237" y="58" width="31" height="24">
<path d="M245.553 58.7632C245.413 58.6232 245.193 58.6232 245.063 58.7632L237.962 65.8635C237.822 66.0035 237.822 66.2235 237.962 66.3535L252.793 81.1842C252.863 81.2542 252.943 81.2842 253.043 81.2842H267.574C267.764 81.2842 267.854 81.0542 267.724 80.9242L245.553 58.7632Z" fill="white"/>
</mask>
<g mask="url(#mask1_2026_7704)">
<mask id="mask2_2026_7704" style="mask-type:luminance" maskUnits="userSpaceOnUse" x="40" y="30" width="321" height="53">
<path d="M360.358 30.6216H40.3442V82.6639H360.358V30.6216Z" fill="white"/>
</mask>
<g mask="url(#mask2_2026_7704)">
<path d="M245.553 58.7632C245.413 58.6232 245.193 58.6232 245.063 58.7632L237.963 65.8635C237.823 66.0035 237.823 66.2235 237.963 66.3535L252.794 81.1842C252.864 81.2542 252.944 81.2842 253.044 81.2842H267.574C267.764 81.2842 267.854 81.0542 267.724 80.9242L245.553 58.7632Z" fill="#0080FF"/>
</g>
<mask id="mask3_2026_7704" style="mask-type:luminance" maskUnits="userSpaceOnUse" x="40" y="30" width="321" height="53">
<path d="M360.358 30.6216H40.3442V82.6639H360.358V30.6216Z" fill="white"/>
</mask>
<g mask="url(#mask3_2026_7704)">
<path d="M252.903 66.1027L245.313 58.5127L237.723 66.1027H252.903Z" fill="#0055CC"/>
</g>
<mask id="mask4_2026_7704" style="mask-type:luminance" maskUnits="userSpaceOnUse" x="40" y="30" width="321" height="53">
<path d="M360.358 30.6216H40.3442V82.6639H360.358V30.6216Z" fill="white"/>
</mask>
<g mask="url(#mask4_2026_7704)">
<path d="M237.723 66.103L245.313 73.693L252.903 66.103H237.723Z" fill="#0072E5"/>
</g>
<mask id="mask5_2026_7704" style="mask-type:luminance" maskUnits="userSpaceOnUse" x="40" y="30" width="321" height="53">
<path d="M360.358 30.6216H40.3442V82.6639H360.358V30.6216Z" fill="white"/>
</mask>
<g mask="url(#mask5_2026_7704)">
<path d="M260.483 73.693L252.903 66.103L245.313 73.693H260.483Z" fill="#0080FF"/>
</g>
<mask id="mask6_2026_7704" style="mask-type:luminance" maskUnits="userSpaceOnUse" x="40" y="30" width="321" height="53">
<path d="M360.358 30.6216H40.3442V82.6639H360.358V30.6216Z" fill="white"/>
</mask>
<g mask="url(#mask6_2026_7704)">
<path d="M245.313 73.6934L252.903 81.2834L260.483 73.6934H245.313Z" fill="#3392FF"/>
</g>
<mask id="mask7_2026_7704" style="mask-type:luminance" maskUnits="userSpaceOnUse" x="40" y="30" width="321" height="53">
<path d="M360.358 30.6216H40.3442V82.6639H360.358V30.6216Z" fill="white"/>
</mask>
<g mask="url(#mask7_2026_7704)">
<path d="M252.904 81.2834H268.074L260.484 73.6934L252.904 81.2834Z" fill="#66B2FF"/>
</g>
</g>
<path d="M192.344 104.141C192.344 103.963 192.559 103.874 192.685 103.999L204.904 116.137C204.982 116.215 204.983 116.342 204.905 116.42L192.686 128.721C192.56 128.848 192.344 128.758 192.344 128.58V104.141Z" fill="#1B2126"/>
<path d="M302.36 130.368C302.078 130.368 301.902 130.192 301.902 129.911V105.01C301.902 104.729 302.078 104.553 302.36 104.553H306.404C306.65 104.553 306.826 104.658 306.967 104.869L318.503 122.701V105.01C318.503 104.729 318.679 104.553 318.96 104.553H322.618C322.899 104.553 323.075 104.729 323.075 105.01V129.911C323.075 130.192 322.899 130.368 322.618 130.368H318.608C318.362 130.368 318.186 130.262 318.046 130.051L306.475 112.185V129.911C306.475 130.192 306.299 130.368 306.017 130.368H302.36Z" fill="#0080FF"/>
<path d="M292.55 130.368C292.269 130.368 292.093 130.192 292.093 129.911V105.01C292.093 104.729 292.269 104.553 292.55 104.553H296.384C296.665 104.553 296.841 104.729 296.841 105.01V129.911C296.841 130.192 296.665 130.368 296.384 130.368H292.55Z" fill="#0080FF"/>
<path d="M264.486 130.368C264.17 130.368 263.994 130.157 264.134 129.84L274.439 104.904C274.545 104.658 274.721 104.553 274.967 104.553H278.238C278.484 104.553 278.66 104.658 278.765 104.904L289.07 129.84C289.211 130.157 289.035 130.368 288.719 130.368H284.287C284.041 130.368 283.865 130.262 283.76 130.016L281.931 125.198H271.204L269.375 130.016C269.269 130.262 269.094 130.368 268.847 130.368H264.486ZM272.857 120.802H280.243L276.55 111.024L272.857 120.802Z" fill="#0080FF"/>
<path d="M240.13 130.368C239.848 130.368 239.672 130.192 239.672 129.911V105.01C239.672 104.729 239.848 104.553 240.13 104.553H243.963C244.245 104.553 244.42 104.729 244.42 105.01V114.893H256.378V105.01C256.378 104.729 256.554 104.553 256.836 104.553H260.669C260.951 104.553 261.126 104.729 261.126 105.01V129.911C261.126 130.192 260.951 130.368 260.669 130.368H256.836C256.554 130.368 256.378 130.192 256.378 129.911V119.36H244.42V129.911C244.42 130.192 244.245 130.368 243.963 130.368H240.13Z" fill="#0080FF"/>
<path d="M232.34 111.284C232.224 111.43 232.005 111.436 231.877 111.301C230.007 109.34 227.442 108.128 224.946 108.128C219.964 108.128 216.076 111.978 216.076 116.885C216.076 121.83 219.964 125.68 224.946 125.68C227.379 125.68 229.952 124.597 231.891 122.801C232.017 122.685 232.214 122.691 232.328 122.818L234.912 125.696C235.018 125.814 235.014 125.994 234.9 126.105C232.194 128.747 228.402 130.436 224.682 130.436C216.906 130.436 210.905 124.585 210.905 116.96C210.905 109.411 216.982 103.636 224.871 103.636C228.554 103.636 232.31 105.181 234.874 107.676C234.983 107.782 234.991 107.953 234.897 108.071L232.34 111.284Z" fill="#0080FF"/>
</svg>
